<svg width="133" height="132" viewBox="50 -5 133 132" fill="none" xmlns="http://www.w3.org/2000/svg">
<path d="M123.742 77.8538L108.597 72.8497C96.2304 68.2664 84.4943 58.4595 86.0207 45.6663C81.8744 44.4399 77.6979 43.1109 73.8396 43.419C64.9369 44.1318 57.1095 50.5476 56.1993 59.0798C55.4301 66.293 58.0358 72.4167 63.9602 75.9468L63.9401 75.9508C63.9401 75.9508 68.3341 78.6231 71.8601 79.6863C74.4578 80.4697 77.2892 81.4886 79.1821 82.2397L80.6763 82.868C80.7145 82.8861 80.7588 82.9043 80.7951 82.9224C80.8011 82.9244 80.8092 82.9224 80.8152 82.9264L108.138 94.4047C108.931 94.739 109.771 96.6963 109.634 97.5179C109.493 98.3597 107.838 98.992 106.573 99.0081L64.3509 99.5558C58.0358 99.6384 55.4724 106.934 56.0886 111.94C56.6806 116.749 61.0021 121.338 66.7855 121.353L120.353 121.489C126.63 121.506 132.894 120.178 137.701 115.523C145.627 107.848 146.296 95.325 139.816 86.7787C135.834 81.5289 129.707 79.8253 123.744 77.8558L123.742 77.8538Z" fill="#14AC7B"/>
<path d="M177.588 58.963C176.939 50.024 168.969 44.3735 160.719 43.429C156.522 42.9498 152.354 44.5003 148.048 45.6864C147.233 51.0329 150.519 54.7482 146.931 61.8164C146.202 63.2542 141.3 62.6803 140.908 61.0834L140.183 48.6245C139.689 40.1567 131.509 30.5995 123.6 29.9048C121.92 29.7578 119.479 29.6329 118.021 29.6873L111.163 29.943C102.792 30.2552 95.2059 38.6847 94.0842 46.6067C93.1297 53.3507 95.8946 59.7785 101.877 62.044C108.098 64.398 114.115 66.3816 120.44 68.3852C131.183 71.7864 141.423 73.8022 148.044 83.2003C152.893 90.0832 153.268 97.8885 152.66 106.592C159.466 103.936 165.397 101.211 171.549 98.1462C175.848 96.0056 177.833 91.1545 177.854 86.1947C177.89 77.1671 178.27 68.3913 177.586 58.963H177.588Z" fill="#14AC7B"/>
<path d="M120.679 27.7058C128.412 26.2479 132.325 18.344 130.825 11.0522C129.383 4.04644 122.578 -0.985888 115.009 0.163954C106.65 1.43261 101.432 9.12105 103.142 16.8941C104.874 24.7617 111.916 29.3611 120.679 27.7078V27.7058Z" fill="#14AC7B"/>
<path d="M158.004 41.5179C164.023 42.0778 169.327 37.9416 171.075 32.6011C173.02 26.6606 170.699 20.5248 164.861 17.5525C161.19 15.6837 157.974 15.6777 154.289 16.9927C148.531 19.0467 145.334 25.0597 146.419 30.9056C147.482 36.6367 152.263 40.9843 158.004 41.5179Z" fill="#14AC7B"/>
<path d="M74.5063 41.7114C82.2632 41.9973 88.0567 35.5916 87.6137 27.8528C87.211 20.8249 80.4952 15.4523 73.0564 16.4752C67.569 17.2304 63.4932 20.8672 62.5186 26.7533C61.2197 34.5968 67.1824 41.4415 74.5043 41.7114H74.5063Z" fill="#14AC7B"/>
</svg>